# xmcd
# 
# Track frame offsets:
#     150
#     11597
#     31585
#     50527
#     59302
#     69017
#     86177
#     95252
#     116992
#     134502
#     145880
#     152212
#     166000
# 
# Disc length: 2310
# 
# Revision: 3
# Processed by: cddbd v1.5.2PL0 Copyright (c) Steve Scherf et al.
# Submitted via: BonkEnc v1.0.6
# 
DISCID=a709040d
DTITLE=Marvin Gaye - Trouble Man
DYEAR=1972
DGENRE=Film Sountrack
TTITLE0=Main Theme from Trouble Man(2)
TTITLE1="T" Plays It Cool
TTITLE2=Poor Abbey Walsh
TTITLE3=The Break In (Police Shoot Big)
TTITLE4=Cleo's Apartment
TTITLE5=Trouble Man
TTITLE6=Theme from Trouble Man
TTITLE7="T" Stands For Trouble
TTITLE8=Main Theme from Trouble Man(1)
TTITLE9=Life Is A Gamble
TTITLE10=Deep-In-It
TTITLE11=Don't Mess with Mister "T"
TTITLE12=There Goes Mister "T"
EXTD=Mowtown Master Series
EXTT0=
EXTT1=
EXTT2=
EXTT3=
EXTT4=
EXTT5=
EXTT6=
EXTT7=
EXTT8=
EXTT9=
EXTT10=
EXTT11=
EXTT12=
PLAYORDER=
